<svg width="456" height="456" viewBox="0 0 456 456" fill="none" xmlns="http://www.w3.org/2000/svg">
<g clip-path="url(#clip0_23_48)">
<path d="M353.14 168.32C349.11 166.33 345.19 164.17 341.38 161.83H341.37C322.04 149.96 305.73 133.65 293.86 114.32C291.52 110.5 289.36 106.58 287.38 102.55H287.37C286.22 100.21 285.13 97.8299 284.11 95.4199C286.4 96.3899 288.66 97.4299 290.89 98.5099C295.52 100.78 300.02 103.28 304.35 106.01C322.65 117.52 338.17 133.04 349.68 151.34C352.41 155.67 354.91 160.17 357.18 164.8C358.26 167.03 359.3 169.29 360.27 171.58C357.86 170.56 355.48 169.47 353.14 168.32Z" fill="#F2E3FC"/>
<path d="M370.43 208.74C363.91 207.88 357.53 206.58 351.32 204.87C349.89 204.48 348.48 204.06 347.07 203.63C339.83 201.4 332.84 198.61 326.14 195.32C322.11 193.33 318.19 191.17 314.38 188.83H314.37C295.04 176.96 278.73 160.65 266.86 141.32C264.52 137.5 262.36 133.58 260.38 129.55H260.37C257.08 122.85 254.29 115.86 252.06 108.62C251.63 107.21 251.21 105.8 250.82 104.37C249.11 98.1598 247.81 91.7798 246.95 85.2598C253.49 86.1298 259.9 87.4298 266.14 89.1498C267.49 89.5198 268.83 89.9098 270.16 90.3298C274.92 91.7898 279.58 93.4898 284.11 95.4198C285.13 97.8298 286.22 100.21 287.37 102.55H287.38C289.36 106.58 291.52 110.5 293.86 114.31C305.73 133.65 322.04 149.96 341.37 161.83H341.38C345.19 164.17 349.11 166.33 353.14 168.31C355.48 169.47 357.86 170.56 360.27 171.58C362.2 176.11 363.9 180.77 365.36 185.53C365.78 186.86 366.17 188.2 366.54 189.55C368.26 195.79 369.56 202.2 370.43 208.74Z" fill="#DFA9FD"/>
<path d="M371.69 227.84C371.69 230.83 371.6 233.79 371.42 236.73C368.48 236.91 365.52 237 362.53 237C349.3 237 336.49 235.21 324.32 231.87C322.89 231.48 321.48 231.06 320.07 230.63C317.01 229.69 314.01 228.64 311.05 227.51H311.04C302.75 224.33 294.84 220.41 287.38 215.83H287.37C268.04 203.96 251.73 187.65 239.86 168.32C235.28 160.85 231.36 152.94 228.18 144.65C227.05 141.68 226 138.68 225.06 135.62C224.63 134.21 224.21 132.8 223.82 131.37C220.48 119.2 218.69 106.39 218.69 93.16C218.69 90.17 218.78 87.21 218.96 84.27C221.9 84.09 224.86 84 227.85 84C234.33 84 240.7 84.43 246.95 85.26C247.81 91.78 249.11 98.16 250.82 104.37C251.21 105.8 251.63 107.21 252.06 108.62C254.29 115.86 257.08 122.85 260.37 129.55H260.38C262.36 133.58 264.52 137.5 266.86 141.31C278.73 160.65 295.04 176.96 314.37 188.83H314.38C318.19 191.17 322.11 193.33 326.14 195.31C332.84 198.61 339.83 201.4 347.07 203.63C348.48 204.06 349.89 204.48 351.32 204.87C357.53 206.58 363.91 207.88 370.43 208.74C371.26 214.99 371.69 221.36 371.69 227.84Z" fill="#9C4EDC"/>
<path d="M371.42 236.73C371.15 241.2 370.67 245.62 370 249.97C369.46 253.46 368.79 256.91 368.01 260.32C357.57 262.73 346.7 264 335.53 264C322.3 264 309.49 262.21 297.32 258.87C292.81 257.63 288.41 256.18 284.09 254.53C284.08 254.53 284.06 254.52 284.04 254.51C275.75 251.33 267.84 247.41 260.38 242.83C241.04 230.96 224.73 214.65 212.86 195.31C208.28 187.85 204.36 179.94 201.18 171.65C201.17 171.63 201.16 171.61 201.16 171.6C199.51 167.28 198.06 162.88 196.82 158.37C193.48 146.2 191.69 133.39 191.69 120.16C191.69 108.99 192.96 98.12 195.37 87.68C198.78 86.9 202.23 86.23 205.72 85.69C210.07 85.02 214.49 84.54 218.96 84.27C218.78 87.21 218.69 90.17 218.69 93.16C218.69 106.39 220.48 119.2 223.82 131.37C224.21 132.8 224.63 134.21 225.06 135.62C226 138.68 227.05 141.68 228.18 144.64C231.36 152.94 235.28 160.85 239.86 168.31C251.73 187.65 268.04 203.96 287.37 215.83H287.38C294.84 220.41 302.75 224.33 311.04 227.51H311.05C314.01 228.64 317.01 229.69 320.07 230.63C321.48 231.06 322.89 231.48 324.32 231.87C336.49 235.21 349.3 237 362.53 237C365.52 237 368.48 236.91 371.42 236.73Z" fill="#7B2CBF"/>
<path d="M368.01 260.32C366.43 267.16 364.36 273.81 361.85 280.24C361.76 280.46 361.68 280.68 361.59 280.9C345.17 287.42 327.27 291 308.53 291C289.79 291 273.03 287.64 257.05 281.51H257.04C248.75 278.33 240.84 274.41 233.38 269.83C214.04 257.96 197.73 241.65 185.86 222.31C181.28 214.85 177.36 206.94 174.18 198.65C168.05 182.66 164.69 165.31 164.69 147.16C164.69 129.01 168.27 110.52 174.79 94.1002C175.01 94.0102 175.23 93.9302 175.45 93.8402C181.88 91.3302 188.53 89.2602 195.37 87.6802C192.96 98.1202 191.69 108.99 191.69 120.16C191.69 133.39 193.48 146.2 196.82 158.37C198.06 162.88 199.51 167.28 201.16 171.6C201.16 171.61 201.17 171.63 201.18 171.65C204.36 179.94 208.28 187.85 212.86 195.31C224.73 214.65 241.04 230.96 260.38 242.83C267.84 247.41 275.75 251.33 284.04 254.51C284.06 254.51 284.08 254.53 284.09 254.53C288.41 256.18 292.81 257.63 297.32 258.87C309.49 262.21 322.3 264 335.53 264C346.7 264 357.57 262.73 368.01 260.32Z" fill="#5A189A"/>
<path d="M361.59 280.9C359.09 287.2 356.15 293.29 352.81 299.12C347.39 302.23 341.74 304.98 335.91 307.37C319.13 314.22 300.78 318 281.54 318C263.39 318 246.03 314.64 230.05 308.51C192.03 293.93 161.77 263.67 147.19 225.65C141.06 209.67 137.7 192.31 137.7 174.16C137.7 154.92 141.48 136.57 148.33 119.79C150.72 113.95 153.47 108.3 156.58 102.88C162.41 99.5401 168.5 96.6001 174.8 94.1001C168.28 110.52 164.7 128.42 164.7 147.16C164.7 165.9 168.06 182.66 174.19 198.64C177.37 206.94 181.29 214.85 185.87 222.31C197.74 241.65 214.05 257.96 233.39 269.83C240.85 274.41 248.76 278.33 257.05 281.51H257.06C273.04 287.64 290.39 291 308.54 291C326.69 291 345.18 287.42 361.6 280.9H361.59Z" fill="#3C096C"/>
<path d="M352.81 299.12C351 302.31 349.06 305.42 347 308.44C345.42 310.79 343.76 313.09 342.03 315.34C331.96 323.07 320.83 329.5 308.91 334.37C292.13 341.22 273.78 345 254.54 345C236.39 345 219.03 341.64 203.05 335.51C165.03 320.93 134.77 290.67 120.19 252.65C114.06 236.67 110.7 219.31 110.7 201.16C110.7 181.92 114.48 163.57 121.33 146.79C126.2 134.86 132.63 123.73 140.36 113.66C142.61 111.93 144.91 110.27 147.26 108.69C150.28 106.63 153.39 104.69 156.58 102.88C153.47 108.3 150.72 113.95 148.33 119.78C141.48 136.57 137.7 154.92 137.7 174.16C137.7 192.31 141.06 209.67 147.19 225.65C161.77 263.67 192.03 293.93 230.05 308.51C246.03 314.64 263.39 318 281.54 318C300.78 318 319.13 314.22 335.91 307.37C341.74 304.98 347.39 302.23 352.81 299.12Z" fill="#240046"/>
<path d="M342.03 315.34C336.38 322.7 330.04 329.5 323.09 335.64C310.91 346.42 296.88 355.16 281.54 361.33C264.95 368.01 246.83 371.69 227.85 371.69C208.87 371.69 190.36 367.94 173.62 361.12C137.79 346.53 109.16 317.9 94.57 282.07C87.75 265.33 84 247.02 84 227.84C84 208.66 87.68 190.74 94.36 174.15C100.53 158.81 109.27 144.78 120.05 132.6C126.19 125.65 132.99 119.31 140.35 113.66C132.62 123.73 126.19 134.86 121.32 146.78C114.47 163.57 110.69 181.92 110.69 201.16C110.69 219.31 114.05 236.67 120.18 252.65C134.76 290.67 165.02 320.93 203.04 335.51C219.02 341.64 236.38 345 254.53 345C273.77 345 292.12 341.22 308.9 334.37C320.82 329.5 331.95 323.07 342.02 315.34H342.03Z" fill="#10002B"/>
<path d="M455.32 214.71C455.27 213.62 455.19 212.54 455.11 211.45C454.84 207.39 454.43 203.35 453.94 199.35C453.91 199.11 453.88 198.86 453.84 198.62C452.98 191.9 451.82 185.26 450.39 178.72C446.51 161.03 440.56 144.11 432.81 128.22C432.38 127.31 431.92 126.39 431.47 125.5C429.5 121.57 427.41 117.72 425.21 113.93C423.29 110.6 421.28 107.32 419.19 104.1C418.1 102.42 417 100.76 415.86 99.1202C399.93 75.8902 379.8 55.7602 356.57 39.8302C354.92 38.6902 353.27 37.5902 351.59 36.5002C348.37 34.4102 345.09 32.4002 341.76 30.4802C337.97 28.2802 334.12 26.1902 330.19 24.2202C329.29 23.7702 328.37 23.3102 327.47 22.8802C311.58 15.1302 294.66 9.19024 276.97 5.30023C270.44 3.86023 263.8 2.70023 257.07 1.85023C256.83 1.82023 256.58 1.79023 256.34 1.75023C252.34 1.25023 248.31 0.850234 244.24 0.580234C243.15 0.500234 242.07 0.420234 240.98 0.370234C236.63 0.120234 232.26 -0.00976562 227.85 -0.00976562C218.69 -0.00976562 209.65 0.530234 200.77 1.58023C192.54 2.55023 184.44 3.97023 176.49 5.80023C168.94 7.53023 161.54 9.64023 154.3 12.1102C147.33 14.4902 140.52 17.1902 133.88 20.2002C127.42 23.1202 121.13 26.3402 115.02 29.8402C109.02 33.2602 103.2 36.9402 97.56 40.8802C92 44.7602 86.61 48.8902 81.43 53.2502C31.65 95.0602 0 157.76 0 227.84C0 353.68 102.01 455.69 227.85 455.69C297.93 455.69 360.64 424.04 402.43 374.25C406.79 369.07 410.92 363.68 414.8 358.12C418.74 352.48 422.42 346.66 425.84 340.66C429.33 334.55 432.55 328.26 435.48 321.8C438.49 315.16 441.19 308.35 443.57 301.38C446.04 294.14 448.15 286.74 449.88 279.19C451.72 271.24 453.13 263.14 454.1 254.91C455.16 246.03 455.69 237 455.69 227.83C455.69 223.42 455.56 219.05 455.31 214.7L455.32 214.71ZM135.49 107.31C137.87 105.48 140.29 103.73 142.77 102.06C145.96 99.8902 149.24 97.8402 152.61 95.9302C158.76 92.4002 165.19 89.3002 171.84 86.6602C172.07 86.5702 172.3 86.4802 172.54 86.3902C179.33 83.7402 186.35 81.5602 193.57 79.8902C197.17 79.0702 200.81 78.3602 204.5 77.7902C209.09 77.0802 213.76 76.5802 218.48 76.2902C221.58 76.1002 224.71 76.0102 227.86 76.0102C234.7 76.0102 241.42 76.4602 248.02 77.3402C254.92 78.2602 261.69 79.6302 268.28 81.4502C269.71 81.8402 271.12 82.2502 272.52 82.7002C277.54 84.2402 282.46 86.0402 287.25 88.0702C289.67 89.0902 292.05 90.1902 294.41 91.3302C299.3 93.7302 304.05 96.3702 308.62 99.2502C327.94 111.4 344.32 127.78 356.47 147.1C359.35 151.67 361.99 156.42 364.39 161.31C365.53 163.66 366.63 166.05 367.65 168.47C369.69 173.25 371.48 178.17 373.02 183.2C373.46 184.6 373.88 186.02 374.27 187.44C376.09 194.03 377.46 200.79 378.38 207.7C379.26 214.3 379.71 221.02 379.71 227.86C379.71 231.02 379.61 234.14 379.42 237.24C379.14 241.96 378.63 246.62 377.92 251.22C377.35 254.9 376.64 258.55 375.82 262.15C374.15 269.37 371.97 276.39 369.32 283.18C369.23 283.41 369.14 283.64 369.05 283.88C366.41 290.53 363.31 296.96 359.78 303.11C357.87 306.48 355.82 309.76 353.65 312.95C351.98 315.43 350.23 317.86 348.4 320.23C342.44 328 335.74 335.18 328.41 341.66C315.55 353.04 300.74 362.27 284.55 368.78C267.04 375.83 247.91 379.72 227.87 379.72C207.83 379.72 188.3 375.76 170.62 368.56C132.8 353.16 102.58 322.94 87.17 285.11C79.97 267.44 76.01 248.11 76.01 227.86C76.01 207.61 79.89 188.7 86.95 171.18C93.46 154.99 102.69 140.18 114.07 127.32C120.55 119.98 127.73 113.29 135.5 107.33L135.49 107.31Z" fill="#5A189A"/>
<path d="M443.33 215.4C443.28 214.37 443.21 213.34 443.13 212.31C442.87 208.46 442.49 204.64 442.02 200.85C441.99 200.62 441.96 200.39 441.93 200.16C441.12 193.79 440.02 187.5 438.66 181.31C434.98 164.55 429.35 148.52 422.01 133.47C421.6 132.61 421.17 131.74 420.74 130.89C418.87 127.17 416.89 123.52 414.81 119.93C412.99 116.78 411.09 113.67 409.11 110.62C408.08 109.03 407.04 107.46 405.96 105.9C390.87 83.89 371.8 64.82 349.79 49.73C348.23 48.65 346.66 47.61 345.07 46.58C342.02 44.6 338.91 42.7 335.76 40.88C332.17 38.8 328.52 36.82 324.8 34.95C323.95 34.52 323.08 34.09 322.22 33.68C307.17 26.34 291.14 20.71 274.38 17.03C268.19 15.67 261.9 14.57 255.53 13.76C255.3 13.73 255.07 13.7 254.84 13.67C251.05 13.2 247.23 12.82 243.38 12.56C242.35 12.48 241.32 12.41 240.29 12.36C236.17 12.12 232.03 12 227.85 12C219.17 12 210.61 12.51 202.2 13.51C194.4 14.43 186.73 15.77 179.2 17.51C172.05 19.15 165.04 21.15 158.18 23.49C151.58 25.74 145.13 28.3 138.84 31.15C132.72 33.92 126.76 36.97 120.97 40.28C115.29 43.52 109.77 47.01 104.43 50.74C99.16 54.42 94.06 58.33 89.15 62.46C41.98 102.05 12 161.45 12 227.84C12 347.05 108.64 443.69 227.85 443.69C294.24 443.69 353.64 413.71 393.23 366.54C397.36 361.63 401.27 356.53 404.95 351.26C408.68 345.92 412.17 340.4 415.41 334.72C418.72 328.93 421.77 322.97 424.54 316.85C427.39 310.56 429.95 304.11 432.2 297.51C434.54 290.65 436.54 283.64 438.18 276.49C439.92 268.96 441.26 261.29 442.18 253.49C443.18 245.08 443.69 236.52 443.69 227.84C443.69 223.66 443.57 219.52 443.33 215.4ZM140.35 113.66C142.6 111.93 144.9 110.27 147.25 108.69C150.27 106.63 153.38 104.69 156.57 102.88C162.4 99.54 168.49 96.6 174.79 94.1C175.01 94.01 175.23 93.93 175.45 93.84C181.88 91.33 188.53 89.26 195.37 87.68C198.78 86.9 202.23 86.23 205.72 85.69C210.07 85.02 214.49 84.54 218.96 84.27C221.9 84.09 224.86 84 227.85 84C234.33 84 240.7 84.43 246.95 85.26C253.49 86.13 259.9 87.43 266.14 89.15C267.49 89.52 268.83 89.91 270.16 90.33C274.92 91.79 279.58 93.49 284.11 95.42C286.4 96.39 288.66 97.43 290.89 98.51C295.52 100.78 300.02 103.28 304.35 106.01C322.65 117.52 338.17 133.04 349.68 151.34C352.41 155.67 354.91 160.17 357.18 164.8C358.26 167.03 359.3 169.29 360.27 171.58C362.2 176.11 363.9 180.77 365.36 185.53C365.78 186.86 366.17 188.2 366.54 189.55C368.26 195.79 369.56 202.2 370.43 208.74C371.26 214.99 371.69 221.36 371.69 227.84C371.69 230.83 371.6 233.79 371.42 236.73C371.15 241.2 370.67 245.62 370 249.97C369.46 253.46 368.79 256.91 368.01 260.32C366.43 267.16 364.36 273.81 361.85 280.24C361.76 280.46 361.68 280.68 361.59 280.9C359.09 287.2 356.15 293.29 352.81 299.12C351 302.31 349.06 305.42 347 308.44C345.42 310.79 343.76 313.09 342.03 315.34C336.38 322.7 330.04 329.5 323.09 335.64C310.91 346.42 296.88 355.16 281.54 361.33C264.95 368.01 246.83 371.69 227.85 371.69C208.87 371.69 190.36 367.94 173.62 361.12C137.79 346.53 109.16 317.9 94.57 282.07C87.75 265.33 84 247.02 84 227.84C84 208.66 87.68 190.74 94.36 174.15C100.53 158.81 109.27 144.78 120.05 132.6C126.19 125.65 132.99 119.31 140.35 113.66Z" fill="white"/>
</g>
<defs>
<clipPath id="clip0_23_48">
<rect width="455.7" height="455.7" fill="white"/>
</clipPath>
</defs>
</svg>
